<?xml version="1.0" encoding="utf-8"?>
<!-- Generator: Adobe Illustrator 25.2.3, SVG Export Plug-In . SVG Version: 6.00 Build 0)  -->
<svg version="1.1" id="Layer_1" xmlns="http://www.w3.org/2000/svg" xmlns:xlink="http://www.w3.org/1999/xlink" x="0px" y="0px"
	 viewBox="0 0 273.4 320.9" style="enable-background:new 0 0 273.4 320.9;" xml:space="preserve">
<style type="text/css">
	.st0{fill:#00BCE8;}
</style>
<path class="st0" d="M128.7,162.7l-2.4-0.6c-0.9-0.2-23.1-6.2-33.3-23.9c-10.2-17.7-4.3-39.9-4.1-40.8l0.6-2.4l2.4,0.6
	c0.9,0.2,23.1,6.2,33.3,23.9s4.3,39.9,4.1,40.9L128.7,162.7z M93.2,101.2c-1.2,6.1-3.1,21.8,4.1,34.4s21.9,18.8,27.8,20.8
	c1.1-6.1,3.1-21.8-4.1-34.4l0,0C113.7,109.4,99,103.3,93.2,101.2L93.2,101.2z"/>
<path class="st0" d="M128.7,221.6l-2.4-0.6c-0.9-0.2-23.1-6.2-33.3-23.9c-10.2-17.7-4.3-39.9-4.1-40.8l0.6-2.4l2.4,0.6
	c0.9,0.2,23.1,6.2,33.3,23.9l0,0c10.2,17.7,4.3,39.9,4.1,40.8L128.7,221.6z M93.2,160.1c-1.2,6.1-3.1,21.8,4.1,34.4
	s21.9,18.8,27.8,20.8c1.1-6.1,3.1-21.8-4.1-34.4S99,162.1,93.2,160.1L93.2,160.1z"/>
<path class="st0" d="M128.7,280.5l-2.4-0.6c-0.9-0.2-23.1-6.2-33.3-23.9s-4.3-39.9-4.1-40.8l0.6-2.4l2.4,0.6
	c0.9,0.2,23.1,6.2,33.3,23.9l0,0c10.2,17.7,4.3,39.9,4.1,40.8L128.7,280.5z M93.2,219c-1.2,6.1-3.1,21.8,4.1,34.4
	s21.9,18.8,27.8,20.8c1.1-6.1,3.1-21.8-4.1-34.5l0,0C113.7,227.2,99,221,93.2,219L93.2,219z"/>
<path class="st0" d="M141.8,162.7l-0.7-2.4c-0.2-0.9-6.2-23.1,4.1-40.8s32.4-23.7,33.3-23.9l2.4-0.6l0.6,2.4
	c0.3,0.9,6.2,23.1-4.1,40.8c-10.3,17.7-32.4,23.7-33.3,23.9L141.8,162.7z M177.3,101.2c-5.8,2-20.5,8.2-27.8,20.8
	s-5.3,28.4-4.1,34.4c5.8-2,20.5-8.2,27.8-20.8S178.5,107.3,177.3,101.2L177.3,101.2z"/>
<path class="st0" d="M134.8,112.9l-1.8-1.7c-0.7-0.7-16.9-16.9-16.9-37.4s16.2-36.7,16.8-37.4l1.8-1.7l1.7,1.7
	c0.7,0.7,16.9,16.9,16.9,37.4s-16.2,36.7-16.9,37.4L134.8,112.9z M134.8,41.9c-4,4.7-13.6,17.3-13.6,31.9s9.6,27.2,13.6,31.9
	c4-4.7,13.6-17.3,13.6-31.9S138.8,46.6,134.8,41.9L134.8,41.9z"/>
<path class="st0" d="M141.8,221.6l-0.7-2.4c-0.2-0.9-6.2-23.1,4.1-40.8l0,0c10.2-17.7,32.4-23.7,33.3-23.9l2.4-0.6l0.6,2.4
	c0.3,0.9,6.2,23.1-4.1,40.8c-10.3,17.7-32.4,23.7-33.3,23.9L141.8,221.6z M149.5,180.9c-7.3,12.6-5.3,28.4-4.1,34.4
	c5.8-2,20.5-8.2,27.8-20.8s5.3-28.4,4.1-34.4C171.5,162.1,156.8,168.3,149.5,180.9z"/>
<path class="st0" d="M141.8,280.5l-0.7-2.4c-0.2-0.9-6.2-23.1,4.1-40.8s32.4-23.7,33.3-23.9l2.4-0.6l0.6,2.4
	c0.3,0.9,6.2,23.1-4.1,40.8s-32.4,23.7-33.3,23.9L141.8,280.5z M177.3,219c-5.8,2-20.5,8.2-27.8,20.8s-5.3,28.4-4.1,34.5
	c5.8-2,20.5-8.2,27.8-20.8S178.5,225,177.3,219L177.3,219z"/>
<path class="st0" d="M93,87c-1.4,0-2.5-1.1-2.5-2.5V37.1c0-1.4,1.1-2.5,2.5-2.5s2.5,1.1,2.5,2.5v47.5C95.5,85.9,94.4,87,93,87z"/>
<path class="st0" d="M106.3,87c-1.4,0-2.5-1.1-2.5-2.5l0,0v-82c0-1.4,1.1-2.5,2.5-2.5s2.5,1.1,2.5,2.5v82.1
	C108.8,85.9,107.7,87,106.3,87z"/>
<path class="st0" d="M177.9,87c-1.4,0-2.5-1.1-2.5-2.5V37.1c0-1.4,1.1-2.5,2.5-2.5s2.5,1.1,2.5,2.5v47.5
	C180.4,85.9,179.3,87,177.9,87L177.9,87z"/>
<path class="st0" d="M164.6,87c-1.4,0-2.5-1.1-2.5-2.5v-82c0-1.4,1.1-2.5,2.5-2.5s2.5,1.1,2.5,2.5v82.1C167.1,85.9,166,87,164.6,87z
	"/>
<path class="st0" d="M232.2,192l-2.4-0.6c-0.7-0.2-17.6-4.7-25.4-18.3s-3.3-30.4-3.1-31.1l0.6-2.4l2.4,0.6
	c0.7,0.2,17.6,4.7,25.4,18.3l0,0c7.8,13.5,3.3,30.4,3.1,31.1L232.2,192z M205.5,145.9c-0.9,4.9-1.9,15.9,3.2,24.7
	c5.1,8.8,15.2,13.4,19.8,15.1c0.9-4.9,1.9-15.9-3.2-24.7l0,0C220.2,152.1,210.2,147.6,205.5,145.9L205.5,145.9z"/>
<path class="st0" d="M232.2,236.3l-2.4-0.6c-0.7-0.2-17.6-4.7-25.4-18.3c-7.8-13.6-3.3-30.4-3.1-31.1l0.6-2.4l2.4,0.6
	c0.7,0.2,17.6,4.7,25.4,18.3s3.3,30.4,3.1,31.2L232.2,236.3z M205.5,190.1c-0.9,4.9-1.9,15.9,3.2,24.7c5.1,8.8,15.2,13.4,19.8,15.1
	c0.9-4.9,1.9-15.9-3.2-24.7C220.2,196.4,210.2,191.8,205.5,190.1L205.5,190.1z"/>
<path class="st0" d="M232.2,280.5l-2.4-0.6c-0.7-0.2-17.6-4.7-25.4-18.3s-3.3-30.4-3.1-31.1l0.6-2.4l2.4,0.6
	c0.7,0.2,17.6,4.7,25.4,18.3l0,0c7.8,13.6,3.3,30.5,3.1,31.1L232.2,280.5z M205.5,234.3c-0.9,4.9-1.9,15.9,3.2,24.7
	s15.2,13.4,19.8,15.1c0.9-4.9,1.9-15.9-3.2-24.7l0,0C220.2,240.6,210.2,236,205.5,234.3L205.5,234.3z"/>
<path class="st0" d="M241.1,192l-0.7-2.4c-0.2-0.7-4.7-17.6,3.1-31.1s24.7-18.1,25.4-18.3l2.4-0.6l0.7,2.4
	c0.2,0.7,4.7,17.6-3.1,31.1s-24.7,18.1-25.4,18.3L241.1,192z M267.8,145.9c-4.7,1.7-14.7,6.3-19.9,15.1l0,0
	c-5.1,8.8-4,19.8-3.2,24.7c4.7-1.7,14.7-6.3,19.8-15.1C269.6,161.8,268.6,150.8,267.8,145.9z"/>
<path class="st0" d="M236.3,154.7l-1.8-1.7c-0.5-0.5-12.9-12.9-12.9-28.5s12.3-28,12.9-28.5l1.8-1.7l1.8,1.7
	c0.5,0.5,12.9,12.9,12.9,28.5s-12.3,28-12.9,28.5L236.3,154.7z M236.3,101.4c-3.2,3.8-9.6,12.8-9.6,23s6.4,19.2,9.6,23
	c3.2-3.8,9.6-12.8,9.6-23S239.5,105.2,236.3,101.4L236.3,101.4z"/>
<path class="st0" d="M241.1,236.3l-0.7-2.4c-0.2-0.7-4.7-17.6,3.1-31.1l0,0c7.8-13.5,24.7-18.1,25.4-18.3l2.4-0.6l0.7,2.4
	c0.2,0.7,4.7,17.6-3.1,31.1c-7.8,13.5-24.7,18.1-25.4,18.3L241.1,236.3z M247.9,205.3c-5.1,8.9-4,19.8-3.2,24.7
	c4.7-1.7,14.7-6.3,19.8-15.1s4-19.8,3.2-24.7C263.1,191.9,253,196.4,247.9,205.3L247.9,205.3z"/>
<path class="st0" d="M241.1,280.5l-0.7-2.4c-0.2-0.7-4.7-17.6,3.1-31.1s24.7-18.1,25.4-18.3l2.4-0.6l0.7,2.4
	c0.2,0.7,4.7,17.6-3.1,31.1s-24.7,18.1-25.4,18.3L241.1,280.5z M267.8,234.3c-4.7,1.7-14.7,6.3-19.9,15.1l0,0
	c-5.1,8.9-4,19.8-3.2,24.7c4.7-1.7,14.7-6.3,19.8-15.1S268.6,239.2,267.8,234.3z"/>
<path class="st0" d="M204.9,135c-1.4,0-2.5-1.1-2.5-2.5V96.8c0-1.4,1.1-2.5,2.5-2.5s2.5,1.1,2.5,2.5v35.7
	C207.4,133.9,206.3,135,204.9,135z"/>
<path class="st0" d="M214.9,135c-1.4,0-2.5-1.1-2.5-2.5V70.8c0-1.4,1.1-2.5,2.5-2.5s2.5,1.1,2.5,2.5v61.7
	C217.4,133.9,216.3,135,214.9,135z"/>
<path class="st0" d="M268.7,135c-1.4,0-2.5-1.1-2.5-2.5V96.8c0-1.4,1.1-2.5,2.5-2.5s2.5,1.1,2.5,2.5v35.7
	C271.2,133.9,270.1,135,268.7,135z"/>
<path class="st0" d="M258.7,135c-1.4,0-2.5-1.1-2.5-2.5V70.8c0-1.4,1.1-2.5,2.5-2.5s2.5,1.1,2.5,2.5v61.7
	C261.2,133.9,260.1,135,258.7,135z"/>
<path class="st0" d="M32.4,192l-2.4-0.6c-0.7-0.2-17.6-4.7-25.4-18.3S1.3,142.7,1.5,142l0.7-2.4l2.4,0.6c0.7,0.2,17.6,4.7,25.4,18.3
	l0,0c7.8,13.5,3.3,30.4,3.1,31.1L32.4,192z M5.7,145.9c-0.8,4.9-1.9,15.9,3.2,24.7c5.1,8.8,15.2,13.4,19.8,15.1
	c0.9-4.9,1.9-15.9-3.2-24.7l0,0C20.5,152.2,10.4,147.6,5.7,145.9z"/>
<path class="st0" d="M32.4,236.3l-2.4-0.6c-0.7-0.2-17.6-4.7-25.4-18.3c-7.8-13.6-3.3-30.4-3.1-31.1l0.7-2.4l2.4,0.6
	c0.7,0.2,17.6,4.7,25.4,18.3s3.3,30.4,3.1,31.2L32.4,236.3z M5.7,190.1C4.9,195,3.8,206,8.9,214.8s15.2,13.4,19.8,15.1
	c0.9-4.9,1.9-15.9-3.2-24.8C20.4,196.2,10.4,191.8,5.7,190.1z"/>
<path class="st0" d="M32.4,280.5l-2.4-0.6c-0.7-0.2-17.6-4.7-25.4-18.3s-3.3-30.4-3.1-31.2l0.7-2.4l2.4,0.6
	c0.7,0.2,17.6,4.7,25.4,18.3l0,0c7.8,13.6,3.3,30.5,3.1,31.2L32.4,280.5z M5.7,234.3c-0.8,4.9-1.9,15.9,3.2,24.7
	s15.2,13.4,19.8,15.1c0.9-4.9,1.9-15.9-3.2-24.8l0,0C20.5,240.6,10.4,236.1,5.7,234.3z"/>
<path class="st0" d="M41.3,192l-0.7-2.4c-0.2-0.7-4.7-17.6,3.1-31.1s24.7-18.1,25.4-18.3l2.4-0.6l0.7,2.4c0.2,0.7,4.7,17.6-3.1,31.1
	s-24.7,18.1-25.4,18.3L41.3,192z M68,145.9c-4.7,1.7-14.7,6.3-19.8,15.1l0,0c-5.1,8.8-4,19.8-3.2,24.7c4.7-1.7,14.7-6.3,19.8-15.1
	C69.9,161.8,68.8,150.8,68,145.9z"/>
<path class="st0" d="M36.5,154.7l-1.8-1.7c-0.5-0.6-12.9-12.9-12.9-28.6s12.3-28,12.9-28.5l1.8-1.7l1.8,1.7
	c0.5,0.5,12.9,12.9,12.9,28.5s-12.3,28-12.9,28.5L36.5,154.7z M36.5,101.4c-3.2,3.8-9.6,12.8-9.6,23s6.4,19.2,9.6,23
	c3.2-3.8,9.6-12.8,9.6-23S39.7,105.3,36.5,101.4L36.5,101.4z"/>
<path class="st0" d="M41.3,236.3l-0.7-2.4c-0.2-0.7-4.7-17.6,3.1-31.1s24.7-18.1,25.4-18.3l2.4-0.6l0.7,2.4
	c0.2,0.7,4.7,17.6-3.1,31.1s-24.7,18.1-25.4,18.3L41.3,236.3z M68,190.1c-4.7,1.7-14.7,6.3-19.8,15.1c-5.1,8.8-4,19.8-3.2,24.7
	c4.7-1.7,14.7-6.3,19.8-15.1S68.8,195,68,190.1z"/>
<path class="st0" d="M41.3,280.5l-0.7-2.4c-0.2-0.7-4.7-17.6,3.1-31.1s24.7-18.1,25.4-18.3l2.4-0.6l0.7,2.4
	c0.2,0.7,4.7,17.6-3.1,31.1s-24.7,18.1-25.4,18.3L41.3,280.5z M68,234.3c-4.7,1.7-14.7,6.3-19.8,15.1l0,0c-5.1,8.9-4,19.8-3.2,24.7
	c4.7-1.7,14.7-6.3,19.8-15.1S68.8,239.2,68,234.3z"/>
<path class="st0" d="M5.1,135c-1.4,0-2.5-1.1-2.5-2.5V96.8c0-1.4,1.1-2.5,2.5-2.5s2.5,1.1,2.5,2.5v35.7C7.6,133.9,6.5,135,5.1,135z"
	/>
<path class="st0" d="M15.1,135c-1.4,0-2.5-1.1-2.5-2.5V70.8c0-1.4,1.1-2.5,2.5-2.5s2.5,1.1,2.5,2.5v61.7
	C17.6,133.9,16.5,135,15.1,135z"/>
<path class="st0" d="M68.9,135c-1.4,0-2.5-1.1-2.5-2.5V96.8c0-1.4,1.1-2.5,2.5-2.5s2.5,1.1,2.5,2.5v35.7
	C71.4,133.9,70.3,135,68.9,135z"/>
<path class="st0" d="M58.9,135c-1.4,0-2.5-1.1-2.5-2.5V70.8c0-1.4,1.1-2.5,2.5-2.5s2.5,1.1,2.5,2.5v61.7
	C61.4,133.9,60.3,135,58.9,135z"/>
<path class="st0" d="M143.7,320.9c-1.4,0-2.5-1.1-2.5-2.5v-21.2c0-0.2-0.1-0.3-0.3-0.3l0,0h-10.8v21.5c0,1.4-1.1,2.5-2.5,2.5
	s-2.5-1.1-2.5-2.5v-22.2c0-2.4,2-4.4,4.4-4.4h11.4c2.9,0,5.3,2.4,5.3,5.3v21.3C146.2,319.8,145.1,320.9,143.7,320.9z"/>
<path class="st0" d="M245,320.9c-1.4,0-2.5-1.1-2.5-2.5v-21.2c0-0.2-0.1-0.3-0.3-0.3h-10.8v21.5c0,1.4-1.1,2.5-2.5,2.5
	s-2.5-1.1-2.5-2.5v-22.2c0-2.4,2-4.4,4.4-4.4l0,0h11.4c2.9,0,5.3,2.4,5.3,5.3v21.3C247.5,319.8,246.4,320.9,245,320.9z"/>
<path class="st0" d="M45,320.9c-1.4,0-2.5-1.1-2.5-2.5v-21.2c0-0.2-0.1-0.3-0.3-0.3H31.3v21.5c0,1.4-1.1,2.5-2.5,2.5
	s-2.5-1.1-2.5-2.5v-22.2c0-2.4,2-4.4,4.4-4.4h11.4c2.9,0,5.3,2.4,5.3,5.3v21.3C47.5,319.8,46.3,320.9,45,320.9z"/>
</svg>
